<?xml version="1.0" encoding="utf-8"?>
<!-- Generator: Adobe Illustrator 19.1.0, SVG Export Plug-In . SVG Version: 6.00 Build 0)  -->
<svg version="1.1" id="Layer_1" xmlns="http://www.w3.org/2000/svg" xmlns:xlink="http://www.w3.org/1999/xlink" x="0px" y="0px"
	 viewBox="206 206 100 100" enable-background="new 206 206 100 100" xml:space="preserve">
<path id="x-mark-4-icon" d="M305,256c0,27.1-21.9,49-49,49c-27.1,0-49-21.9-49-49c0-27.1,21.9-49,49-49C283.1,207,305,228.9,305,256
	z M295.5,256c0-21.8-17.7-39.5-39.5-39.5c-21.8,0-39.5,17.7-39.5,39.5c0,21.8,17.7,39.5,39.5,39.5
	C277.8,295.5,295.5,277.8,295.5,256z M272.5,281.3l-16-16l-16,16l-8.6-8.6l16-16l-16-16l8.6-8.6l16,16l16-16l8.6,8.6l-16,16l16,16
	L272.5,281.3z"/>
</svg>
