<?xml version="1.0" encoding="utf-8"?>
<!-- Generator: Adobe Illustrator 19.1.0, SVG Export Plug-In . SVG Version: 6.00 Build 0)  -->
<svg version="1.1" id="Layer_1" xmlns="http://www.w3.org/2000/svg" xmlns:xlink="http://www.w3.org/1999/xlink" x="0px" y="0px"
	 viewBox="-429 231.3 100 99.7" style="enable-background:new -429 231.3 100 99.7;" xml:space="preserve">
<g>
	<path d="M-334.3,320.4V276c0-0.3,0-0.7-0.1-1c0-0.1-0.1-0.3-0.1-0.4c0-0.2-0.1-0.3-0.2-0.5s-0.2-0.3-0.2-0.5
		c-0.1-0.1-0.1-0.3-0.2-0.4c-0.2-0.3-0.4-0.5-0.6-0.8l-39.8-39.1c-0.1-0.1-0.2-0.1-0.3-0.2c-0.1-0.1-0.1-0.2-0.2-0.3
		c-1.9-1.9-5.1-1.9-7,0l-20.8,21l-9.9,10.1l-8.5,8.6c-0.2,0.2-0.4,0.5-0.6,0.8c-0.1,0.1-0.1,0.3-0.2,0.4c-0.1,0.2-0.2,0.3-0.2,0.5
		c-0.1,0.2-0.1,0.3-0.2,0.5c0,0.1-0.1,0.3-0.1,0.4c-0.1,0.3-0.1,0.6-0.1,1v44.4c-3,0-5.4,2.3-5.4,5.2c0,2.9,2.5,5.3,5.6,5.3h88.8
		c3.1,0,5.6-2.4,5.6-5.3C-329,322.8-331.3,320.5-334.3,320.4z M-406,270.1c0.5-0.4,0.9-0.8,1.3-1.3l25.2-25.5l35.2,34.8v42.2h-19.8
		v-26.2c0-0.4,0-0.9-0.1-1.3c0.1-0.3,0.1-0.6,0.1-0.9c0-2.7-2.2-5-5-5h-19.8c-2.7,0-5,2.2-5,5c0,0.3,0,0.6,0.1,0.9
		c-0.1,0.4-0.1,0.9-0.1,1.3v26.2h-19.9V278L-406,270.1z M-374,320.3h-10v-23.4h10V320.3z"/>
</g>
</svg>
