<?xml version="1.0" encoding="utf-8"?>
<!-- Generator: Adobe Illustrator 19.1.0, SVG Export Plug-In . SVG Version: 6.00 Build 0)  -->
<svg version="1.1" id="Layer_1" xmlns="http://www.w3.org/2000/svg" xmlns:xlink="http://www.w3.org/1999/xlink" x="0px" y="0px"
	 viewBox="0 0 100 32.1" enable-background="new 0 0 100 32.1" xml:space="preserve">
<rect class="background" fill="#464647" width="100" height="32.1"/>
<g>
	<defs>
		<rect id="SVGID_1_" width="100" height="32.1"/>
	</defs>
	<clipPath id="SVGID_2_">
		<use xlink:href="#SVGID_1_"  overflow="visible"/>
	</clipPath>
	<path clip-path="url(#SVGID_2_)" fill="#FFFFFF" d="M17.7,14.4c-1,0.5-1.8,0.7-3,0.7c-2.9,0-4.4-1.9-4.4-3.8c0-2,1.6-3.9,4.5-3.9
		c1,0,2,0.2,2.7,0.7v1.7C16.8,9.3,15.9,9,15,9c-1.6,0-2.7,0.9-2.7,2.3c0,1.3,1.1,2.3,2.7,2.3c1,0,1.6-0.3,2.7-0.8V14.4"/>
	<polygon clip-path="url(#SVGID_2_)" fill="#FFFFFF" points="24.9,15 19.3,15 19.3,7.5 24.8,7.5 24.8,8.9 21.2,8.9 21.2,10.5 
		24.6,10.5 24.6,11.8 21.2,11.8 21.2,13.7 24.9,13.7 	"/>
	<polygon clip-path="url(#SVGID_2_)" fill="#FFFFFF" points="34.3,15 32.7,15 28.5,10.2 28.5,15 26.7,15 26.7,7.5 28.4,7.5 
		32.4,12.1 32.4,7.5 34.3,7.5 	"/>
	<polygon clip-path="url(#SVGID_2_)" fill="#FFFFFF" points="42.9,8.9 40.1,8.9 40.1,15 38.3,15 38.3,8.9 35.6,8.9 35.6,7.5 
		42.9,7.5 	"/>
	<polygon clip-path="url(#SVGID_2_)" fill="#FFFFFF" points="49.6,15 44.1,15 44.1,7.5 49.6,7.5 49.6,8.9 46,8.9 46,10.5 49.4,10.5 
		49.4,11.8 46,11.8 46,13.7 49.6,13.7 	"/>
	<polygon clip-path="url(#SVGID_2_)" fill="#FFFFFF" points="59.1,15 57.5,15 53.4,10.2 53.4,15 51.5,15 51.5,7.5 53.2,7.5 
		57.2,12.1 57.2,7.5 59.1,7.5 	"/>
	<polygon clip-path="url(#SVGID_2_)" fill="#FFFFFF" points="68.7,15 67.2,15 63,10.2 63,15 61.1,15 61.1,7.5 62.9,7.5 66.9,12.1 
		66.9,7.5 68.7,7.5 	"/>
	<rect x="70.8" y="7.5" clip-path="url(#SVGID_2_)" fill="#FFFFFF" width="1.9" height="7.5"/>
	<path clip-path="url(#SVGID_2_)" fill="#FFFFFF" d="M78.2,9.3l-1.1,2.9h2.3L78.2,9.3z M82.6,15h-2l-0.6-1.5h-3.4L76,15h-2l3-7.5
		h2.2L82.6,15z"/>
	<polygon clip-path="url(#SVGID_2_)" fill="#FFFFFF" points="89.6,15 83.9,15 83.9,7.5 85.8,7.5 85.8,13.7 89.6,13.7 	"/>
	<path clip-path="url(#SVGID_2_)" fill="#D6E037" d="M47.9,19.3c-0.9-0.5-1.7-0.8-2.6-0.8c-1.7,0-3,1.2-3,2.9c0,1.7,1.2,2.9,3,2.9
		c0.8,0,1.8-0.3,2.6-0.9v1.2c-0.7,0.4-1.5,0.7-2.7,0.7c-2.8,0-4.1-2.2-4.1-3.7c0-2.3,1.7-4,4.1-4c0.8,0,1.6,0.2,2.6,0.6V19.3"/>
	<path clip-path="url(#SVGID_2_)" fill="#D6E037" d="M53.3,24.2c1.7,0,2.9-1.2,2.9-2.9c0-1.7-1.2-2.9-2.9-2.9
		c-1.7,0-2.9,1.2-2.9,2.9C50.3,23,51.6,24.2,53.3,24.2 M53.3,17.5c2.5,0,4,1.8,4,3.9c0,2-1.5,3.9-4.1,3.9c-2.5,0-4-1.8-4-3.9
		C49.2,19.3,50.8,17.5,53.3,17.5"/>
	<polygon clip-path="url(#SVGID_2_)" fill="#D6E037" points="60,24.1 63.4,24.1 63.4,25.1 58.9,25.1 58.9,17.6 60,17.6 	"/>
	<polygon clip-path="url(#SVGID_2_)" fill="#D6E037" points="66.1,24.1 69.5,24.1 69.5,25.1 65,25.1 65,17.6 66.1,17.6 	"/>
	<polygon clip-path="url(#SVGID_2_)" fill="#D6E037" points="75.3,18.6 72,18.6 72,20.8 75.1,20.8 75.1,21.8 72,21.8 72,24.1 
		75.3,24.1 75.3,25.1 71,25.1 71,17.6 75.3,17.6 	"/>
	<path clip-path="url(#SVGID_2_)" fill="#D6E037" d="M83.5,24.6c-1,0.4-1.8,0.6-2.9,0.6c-2.3,0-4-1.6-4-3.8c0-2.2,1.7-3.9,4-3.9
		c0.9,0,1.5,0.1,2.7,0.6v1.1c-0.9-0.5-1.8-0.7-2.7-0.7c-1.6,0-2.9,1.2-2.9,2.9c0,1.7,1.3,2.9,3,2.9c0.6,0,1.1-0.1,1.6-0.3v-1.5H81
		v-1h2.5V24.6"/>
	<polygon clip-path="url(#SVGID_2_)" fill="#D6E037" points="89.6,18.6 86.5,18.6 86.5,20.8 89.5,20.8 89.5,21.8 86.5,21.8 
		86.5,24.1 89.6,24.1 89.6,25.1 85.4,25.1 85.4,17.6 89.6,17.6 	"/>
</g>
</svg>
