<?xml version="1.0" encoding="utf-8"?>
<!-- Generator: Adobe Illustrator 19.1.0, SVG Export Plug-In . SVG Version: 6.00 Build 0)  -->
<svg version="1.1" id="Layer_1" xmlns="http://www.w3.org/2000/svg" xmlns:xlink="http://www.w3.org/1999/xlink" x="0px" y="0px"
	 viewBox="-429 230.2 100 100.8" enable-background="new -429 230.2 100 100.8" xml:space="preserve">
<path id="magnifier-2-icon" d="M-330,320l-25.6-25.4c4.8-6.5,7.6-14.6,7.6-23.3c0-21.8-17.9-39.7-40-39.7c-22,0-40,17.7-40,39.7
	c0,21.8,17.9,39.7,40,39.7c8.3,0,16.2-2.5,22.5-6.9l25.7,25.5L-330,320z M-416.1,271.4c0-15.5,12.7-28,28.3-28s28.3,12.6,28.3,28
	s-12.7,28-28.3,28C-403.4,299.5-416.1,286.9-416.1,271.4z"/>
</svg>
