<?xml version="1.0" encoding="utf-8"?>
<!-- Generator: Adobe Illustrator 19.1.0, SVG Export Plug-In . SVG Version: 6.00 Build 0)  -->
<svg version="1.1" id="Vrstva_1" xmlns="http://www.w3.org/2000/svg" xmlns:xlink="http://www.w3.org/1999/xlink" x="0px" y="0px"
	 viewBox="-429 231 100 100" style="enable-background:new -429 231 100 100;" xml:space="preserve">
<path d="M-411.8,232.4c6.3,6.3,11.7,11.7,18,18c3.3,3.3,2.4,7-1.3,10.8c-3.8,3.8-2.7,8.2-1.8,10.4c0.9,2.4,4,7.2,12.1,15.3
	c8,8,12.9,11.1,15.2,12.1c2.2,0.9,6.7,1.9,10.4-1.8c3.8-3.8,7.5-4.7,10.8-1.3c6.3,6.3,11.7,11.7,18,18c7.6,7.6-17.4,19.3-26,16.9
	c-5.5-1.6-23.3-13.8-40.9-31.4c-17.6-17.7-29.8-35.5-31.4-41C-431.1,249.8-419.3,224.8-411.8,232.4z"/>
</svg>
