<?xml version="1.0" encoding="utf-8"?>
<!-- Generator: Adobe Illustrator 19.1.0, SVG Export Plug-In . SVG Version: 6.00 Build 0)  -->
<svg version="1.1" id="Layer_1" xmlns="http://www.w3.org/2000/svg" xmlns:xlink="http://www.w3.org/1999/xlink" x="0px" y="0px"
	 viewBox="0 0 100 100" enable-background="new 0 0 100 100" xml:space="preserve">
<path d="M66.7,75H33.3v-4.2h33.3V75z M58.3,79.2h-25v4.2h25V79.2z M100,20.8V75H83.3v25H16.7V75H0V20.8h16.7V0h66.7v20.8H100z
	 M25,20.8h50V8.3H25V20.8z M75,62.5H25v29.2h50V62.5z M91.7,29.2H8.3v37.5h8.3V54.2h66.7v12.5h8.3V29.2z M85.4,33.3
	c-1.1,0-2.1,0.9-2.1,2.1c0,1.1,0.9,2.1,2.1,2.1c1.2,0,2.1-0.9,2.1-2.1C87.5,34.3,86.6,33.3,85.4,33.3z"/>
</svg>
