<?xml version="1.0" encoding="utf-8"?>
<!-- Generator: Adobe Illustrator 19.1.0, SVG Export Plug-In . SVG Version: 6.00 Build 0)  -->
<svg version="1.1" id="Layer_1" xmlns="http://www.w3.org/2000/svg" xmlns:xlink="http://www.w3.org/1999/xlink" x="0px" y="0px"
	 viewBox="206.4 206 100 100" enable-background="new 206.4 206 100 100" xml:space="preserve">
<path id="facebook-circle-outline-icon" d="M256.4,215.7c10.8,0,20.9,4.2,28.5,11.8c7.6,7.6,11.8,17.7,11.8,28.5
	s-4.2,20.9-11.8,28.5c-7.6,7.6-17.7,11.8-28.5,11.8c-10.8,0-20.9-4.2-28.5-11.8c-7.6-7.6-11.8-17.7-11.8-28.5s4.2-20.9,11.8-28.5
	C235.5,219.9,245.7,215.7,256.4,215.7 M256.4,206c-27.6,0-50,22.4-50,50c0,27.6,22.4,50,50,50c27.6,0,50-22.4,50-50
	C306.4,228.4,284,206,256.4,206L256.4,206z M249.5,246.8h-5.7v9.3h5.7v27.4h11V256h7.7l0.8-9.2h-8.5c0,0,0-3.4,0-5.2
	c0-2.2,0.4-3,2.5-3c1.7,0,5.9,0,5.9,0V229c0,0-6.3,0-7.6,0c-8.2,0-11.8,3.6-11.8,10.5C249.5,245.5,249.5,246.8,249.5,246.8z"/>
</svg>
