<?xml version="1.0" encoding="utf-8"?>
<!-- Generator: Adobe Illustrator 19.1.0, SVG Export Plug-In . SVG Version: 6.00 Build 0)  -->
<svg version="1.1" id="Layer_1" xmlns="http://www.w3.org/2000/svg" xmlns:xlink="http://www.w3.org/1999/xlink" x="0px" y="0px"
	 viewBox="206.4 207 100 100" enable-background="new 206.4 207 100 100" xml:space="preserve">
<path id="google-plus-circle-outline-icon" d="M256.4,216.7c10.8,0,20.9,4.2,28.5,11.8c7.6,7.6,11.8,17.7,11.8,28.5
	s-4.2,20.9-11.8,28.5c-7.6,7.6-17.7,11.8-28.5,11.8c-10.8,0-20.9-4.2-28.5-11.8c-7.6-7.6-11.8-17.7-11.8-28.5s4.2-20.9,11.8-28.5
	C235.5,220.9,245.7,216.7,256.4,216.7 M256.4,207c-27.6,0-50,22.4-50,50c0,27.6,22.4,50,50,50c27.6,0,50-22.4,50-50
	C306.4,229.4,284,207,256.4,207L256.4,207z M257.8,262.8c-4.7-3.4-5.8-5.3-1.4-8.8c2.5-1.9,4.3-4.5,4.3-7.7c0-3.5-1.4-6.7-4.1-8.2
	h3.8l3.2-3.4c0,0-12.2,0-14.5,0c-9,0-13.5,5.4-13.5,11.4c0,6.1,4.2,10.9,12.3,10.9c-1.3,2.6-0.8,4.9,1.3,6.6
	c-13.9,0-16.9,6.1-16.9,10.8c0,6.1,7,9.7,15.4,9.7c11.5,0,16.1-6.1,16.1-11.1C263.9,269,262.4,266.3,257.8,262.8z M241.1,246
	c-0.7-5.1,1.9-9.1,5.8-8.9c3.9,0.1,7.2,4.3,7.9,9.4c0.7,5.1-1.6,8.4-5.5,8.3C245.5,254.7,241.8,251.1,241.1,246z M247.9,281.4
	c-5.8,0-10-3.7-10-8.1c0-4.3,4.9-8.1,10.7-8c6.5,0,10.3,4,10.3,8.2C258.9,278,255.3,281.4,247.9,281.4z M282.8,242.1v3.3h-6.7v6.7
	h-3.3v-6.7h-6.7v-3.3h6.7v-6.7h3.3v6.7H282.8L282.8,242.1z"/>
</svg>
