<?xml version="1.0" encoding="utf-8"?>
<!-- Generator: Adobe Illustrator 19.1.0, SVG Export Plug-In . SVG Version: 6.00 Build 0)  -->
<svg version="1.1" id="Layer_1" xmlns="http://www.w3.org/2000/svg" xmlns:xlink="http://www.w3.org/1999/xlink" x="0px" y="0px"
	 viewBox="206 206 100 100" enable-background="new 206 206 100 100" xml:space="preserve">
<path id="twitter-5-icon" d="M256,215.7c22.3,0,40.3,18,40.3,40.3c0,22.3-18,40.3-40.3,40.3c-22.3,0-40.3-18-40.3-40.3
	C215.7,233.7,233.7,215.7,256,215.7 M256,206c-27.6,0-50,22.4-50,50c0,27.6,22.4,50,50,50c27.6,0,50-22.4,50-50
	C306,228.4,283.6,206,256,206L256,206z M283.4,242.9c-1.9,0.8-3.9,1.4-6,1.6c2.2-1.3,3.8-3.3,4.6-5.8c-2,1.2-4.3,2.1-6.6,2.5
	c-1.9-2-4.6-3.3-7.6-3.3c-6.7,0-11.7,6.3-10.2,12.8c-8.7-0.4-16.4-4.6-21.5-10.9c-2.7,4.7-1.4,10.8,3.2,13.9
	c-1.7-0.1-3.3-0.5-4.7-1.3c-0.1,4.8,3.4,9.4,8.4,10.4c-1.5,0.4-3.1,0.5-4.7,0.2c1.3,4.1,5.2,7.2,9.7,7.2c-4.4,3.4-9.9,5-15.5,4.3
	c4.6,3,10.1,4.7,16,4.7c19.4,0,30.3-16.4,29.7-31C280.2,246.8,282,245,283.4,242.9z"/>
</svg>
