<?xml version="1.0" encoding="utf-8"?>
<!-- Generator: Adobe Illustrator 19.1.0, SVG Export Plug-In . SVG Version: 6.00 Build 0)  -->
<svg version="1.1" id="Layer_1" xmlns="http://www.w3.org/2000/svg" xmlns:xlink="http://www.w3.org/1999/xlink" x="0px" y="0px"
	 viewBox="206 206 100 100" enable-background="new 206 206 100 100" xml:space="preserve">
<path id="youtube-5-icon" d="M256,206c-27.6,0-50,22.4-50,50c0,27.6,22.4,50,50,50c27.6,0,50-22.4,50-50
	C306,228.4,283.6,206,256,206z M256,296.3c-22.3,0-40.3-18-40.3-40.3c0-22.3,18-40.3,40.3-40.3c22.3,0,40.3,18,40.3,40.3
	C296.3,278.3,278.3,296.3,256,296.3z M239.8,228.3h3.2l2.2,8.3l2-8.3h3.2l-3.7,12.3v8.4h-3.2v-8.4L239.8,228.3z M250.4,245.1
	c0,2.7,1.4,4.1,4.2,4.1c2.3,0,4.1-1.5,4.1-4.1v-7.5c0-2.4-1.8-4.1-4.1-4.1c-2.5,0-4.2,1.6-4.2,4.1V245.1L250.4,245.1z M253.3,237.9
	c0-0.8,0.4-1.5,1.2-1.5c0.9,0,1.2,0.6,1.2,1.5v7.1c0,0.8-0.4,1.4-1.2,1.4c-0.8,0-1.2-0.6-1.2-1.4L253.3,237.9L253.3,237.9z
	 M266.3,233.7v11.6c-0.3,0.4-1.1,1.1-1.7,1.1c-0.6,0-0.8-0.4-0.8-1v-11.7H261v12.7c0,1.5,0.5,2.7,2,2.7c0.9,0,2-0.4,3.3-1.9v1.7h2.8
	v-15.2H266.3z M262.1,264.9c0.2,0.3,0.3,0.6,0.3,1.1v7.5c0,0.5-0.1,0.8-0.2,1c-0.3,0.4-0.9,0.4-1.4,0.1c-0.2-0.1-0.4-0.3-0.6-0.5v-9
	c0.2-0.2,0.4-0.3,0.6-0.4C261.2,264.4,261.8,264.5,262.1,264.9z M271.2,264.6c-1,0-1.2,0.7-1.2,1.7v1.5h2.4v-1.5
	C272.4,265.3,272.2,264.6,271.2,264.6z M279.4,275.3c0,3.6-2.9,6.5-6.5,6.5h-33.4c-3.6,0-6.5-2.9-6.5-6.5v-16.4
	c0-3.6,2.9-6.5,6.5-6.5h33.4c3.6,0,6.5,2.9,6.5,6.5L279.4,275.3L279.4,275.3z M244,260.1h3.1v-2.9h-9.3v2.9h3.1v16.8h3L244,260.1
	L244,260.1z M254.8,262.4h-2.7v11c-0.3,0.4-1.1,1.1-1.6,1.1c-0.6,0-0.7-0.4-0.7-1v-11.1h-2.7v12.1c0,2.9,2,3,3.5,2.1
	c0.5-0.3,1.1-0.8,1.6-1.3v1.6h2.7V262.4L254.8,262.4z M265.2,265.9c0-2-0.7-3.6-2.6-3.6c-1,0-1.8,0.6-2.4,1.4v-6.3h-2.7v19.7h2.7
	v-1.1c0.8,0.9,1.6,1.3,2.6,1.3c1.8,0,2.5-1.4,2.5-3.2L265.2,265.9L265.2,265.9z M275.2,266.3c0-2.6-1.3-4.3-3.8-4.3
	c-2.4,0-4.1,1.7-4.1,4.3v6.5c0,2.6,1.3,4.5,3.9,4.5c2.8,0,4-1.7,4-4.5v-1.1h-2.8v1c0,1.3-0.1,2-1.2,2c-1.1,0-1.2-0.9-1.2-2V270h5.2
	L275.2,266.3L275.2,266.3z"/>
</svg>
