<?xml version="1.0" encoding="utf-8"?>
<!-- Generator: Adobe Illustrator 19.1.0, SVG Export Plug-In . SVG Version: 6.00 Build 0)  -->
<svg version="1.1" id="Layer_1" xmlns="http://www.w3.org/2000/svg" xmlns:xlink="http://www.w3.org/1999/xlink" x="0px" y="0px"
	 viewBox="-429 231 100 100" style="enable-background:new -429 231 100 100;" xml:space="preserve">
<path id="facebook-circle-outline-icon" d="M-379,240.7c10.8,0,20.9,4.2,28.5,11.8s11.8,17.7,11.8,28.5s-4.2,20.9-11.8,28.5
	c-7.6,7.6-17.7,11.8-28.5,11.8s-20.9-4.2-28.5-11.8c-7.6-7.6-11.8-17.7-11.8-28.5s4.2-20.9,11.8-28.5S-389.7,240.7-379,240.7
	 M-379,231c-27.6,0-50,22.4-50,50s22.4,50,50,50s50-22.4,50-50S-351.4,231-379,231L-379,231z M-379,258.4c7.5,0,8.4,0,11.3,0.2
	c2.7,0.1,4.2,0.6,5.2,1c1.3,0.5,2.2,1.1,3.2,2.1s1.6,1.9,2.1,3.2c0.4,1,0.8,2.5,1,5.2c0.1,2.9,0.2,3.8,0.2,11.3s0,8.4-0.2,11.3
	c-0.1,2.7-0.6,4.2-1,5.2c-0.5,1.3-1.1,2.2-2.1,3.2s-1.9,1.6-3.2,2.1c-1,0.4-2.5,0.8-5.2,1c-2.9,0.1-3.8,0.2-11.3,0.2
	s-8.4,0-11.3-0.2c-2.7-0.1-4.2-0.6-5.2-1c-1.3-0.5-2.2-1.1-3.2-2.1s-1.6-1.9-2.1-3.2c-0.4-1-0.8-2.5-1-5.2
	c-0.1-2.9-0.2-3.8-0.2-11.3s0-8.4,0.2-11.3c0.1-2.7,0.6-4.2,1-5.2c0.5-1.3,1.1-2.2,2.1-3.2s1.9-1.6,3.2-2.1c1-0.4,2.5-0.8,5.2-1
	C-387.3,258.4-386.4,258.4-379,258.4 M-379,253.4c-7.6,0-8.5,0-11.5,0.2c-3,0.1-5,0.6-6.8,1.3s-3.4,1.7-5,3.2s-2.5,3.1-3.2,5
	c-0.7,1.8-1.2,3.8-1.3,6.8c-0.1,3-0.2,3.9-0.2,11.5s0,8.5,0.2,11.5c0.1,3,0.6,5,1.3,6.8c0.7,1.8,1.7,3.4,3.2,5
	c1.6,1.6,3.1,2.5,5,3.2c1.8,0.7,3.8,1.2,6.8,1.3c3,0.1,3.9,0.2,11.5,0.2s8.5,0,11.5-0.2c3-0.1,5-0.6,6.8-1.3c1.8-0.7,3.4-1.7,5-3.2
	c1.6-1.6,2.5-3.1,3.2-5c0.7-1.8,1.2-3.8,1.3-6.8c0.1-3,0.2-3.9,0.2-11.5s0-8.5-0.2-11.5c-0.1-3-0.6-5-1.3-6.8
	c-0.7-1.8-1.7-3.4-3.2-5c-1.6-1.6-3.1-2.5-5-3.2c-1.8-0.7-3.8-1.2-6.8-1.3C-370.4,253.4-371.4,253.4-379,253.4L-379,253.4z
	 M-379,267c-7.9,0-14.4,6.4-14.4,14.4s6.4,14.4,14.4,14.4s14.4-6.4,14.4-14.4S-371,267-379,267z M-379,290.6c-5.1,0-9.3-4.2-9.3-9.3
	s4.2-9.3,9.3-9.3c5.1,0,9.3,4.2,9.3,9.3S-373.8,290.6-379,290.6z M-360.7,266.4c0,1.9-1.5,3.4-3.4,3.4s-3.4-1.5-3.4-3.4
	s1.5-3.4,3.4-3.4S-360.7,264.5-360.7,266.4z"/>
</svg>
