<?xml version="1.0" encoding="utf-8"?>
<!-- Generator: Adobe Illustrator 19.1.0, SVG Export Plug-In . SVG Version: 6.00 Build 0)  -->
<svg version="1.1" id="Layer_1" xmlns="http://www.w3.org/2000/svg" xmlns:xlink="http://www.w3.org/1999/xlink" x="0px" y="0px"
	 viewBox="206.4 206 100 100" enable-background="new 206.4 206 100 100" xml:space="preserve">
<path id="linkedin-circle-outline-icon" d="M256.4,215.7c10.8,0,20.9,4.2,28.5,11.8c7.6,7.6,11.8,17.7,11.8,28.5
	s-4.2,20.9-11.8,28.5c-7.6,7.6-17.7,11.8-28.5,11.8c-10.8,0-20.9-4.2-28.5-11.8c-7.6-7.6-11.8-17.7-11.8-28.5s4.2-20.9,11.8-28.5
	C235.5,219.9,245.7,215.7,256.4,215.7 M256.4,206c-27.6,0-50,22.4-50,50c0,27.6,22.4,50,50,50c27.6,0,50-22.4,50-50
	C306.4,228.4,284,206,256.4,206L256.4,206z M246.1,236.5c0,3.1-2.5,5.6-5.5,5.6c-3,0-5.5-2.5-5.5-5.6c0-3.1,2.5-5.6,5.5-5.6
	C243.6,231,246.1,233.5,246.1,236.5z M245.3,246h-9.3v30.1h9.3V246z M260.2,246h-8.9v30.1h8.9c0,0,0-11.2,0-15.8
	c0-4.2,2-6.8,5.7-6.8c3.4,0,5.1,2.4,5.1,6.8c0,4.3,0,15.8,0,15.8h9.3c0,0,0-11,0-19.1c0-8.1-4.6-12-11-12c-6.4,0-9.1,5-9.1,5V246
	L260.2,246z"/>
</svg>
