<?xml version="1.0" encoding="utf-8"?>
<!-- Generator: Adobe Illustrator 19.1.0, SVG Export Plug-In . SVG Version: 6.00 Build 0)  -->
<svg version="1.1" id="Layer_1" xmlns="http://www.w3.org/2000/svg" xmlns:xlink="http://www.w3.org/1999/xlink" x="0px" y="0px"
	 viewBox="-429 231 100 100" style="enable-background:new -429 231 100 100;" xml:space="preserve">
<path id="facebook-circle-outline-icon" d="M-379,240.7c10.8,0,20.9,4.2,28.5,11.8s11.8,17.7,11.8,28.5s-4.2,20.9-11.8,28.5
	c-7.6,7.6-17.7,11.8-28.5,11.8s-20.9-4.2-28.5-11.8c-7.6-7.6-11.8-17.7-11.8-28.5s4.2-20.9,11.8-28.5S-389.7,240.7-379,240.7
	 M-379,231c-27.6,0-50,22.4-50,50s22.4,50,50,50s50-22.4,50-50S-351.4,231-379,231L-379,231z M-377,256.1
	c-13.6,0-20.4,9.7-20.4,17.9c0,4.9,1.9,9.3,5.9,10.9c0.7,0.3,1.2,0,1.4-0.7c0.1-0.5,0.4-1.8,0.6-2.3c0.2-0.7,0.1-1-0.4-1.6
	c-1.2-1.4-1.9-3.1-1.9-5.6c0-7.2,5.4-13.7,14.1-13.7c7.7,0,11.9,4.7,11.9,11c0,8.2-3.6,15.2-9.1,15.2c-3,0-5.2-2.5-4.5-5.5
	c0.9-3.6,2.5-7.5,2.5-10.1c0-2.3-1.3-4.3-3.9-4.3c-3.1,0-5.5,3.2-5.5,7.4c0,2.7,0.9,4.5,0.9,4.5s-3.1,13.3-3.7,15.6
	c-1.1,4.6-0.2,10.3-0.1,10.9c0,0.3,0.5,0.4,0.7,0.2c0.3-0.4,3.9-4.9,5.2-9.4c0.4-1.3,2-7.9,2-7.9c1,1.9,3.9,3.6,7,3.6
	c9.2,0,15.4-8.4,15.4-19.6C-358.9,264-366,256.1-377,256.1z"/>
</svg>
