<?xml version="1.0" encoding="utf-8"?>
<!-- Generator: Adobe Illustrator 19.1.0, SVG Export Plug-In . SVG Version: 6.00 Build 0)  -->
<svg version="1.1" id="Layer_1" xmlns="http://www.w3.org/2000/svg" xmlns:xlink="http://www.w3.org/1999/xlink" x="0px" y="0px"
	 viewBox="206 206 100 100" enable-background="new 206 206 100 100" xml:space="preserve">
<path id="rss-circle-outline-icon" d="M256,215.7c10.8,0,20.9,4.2,28.5,11.8c7.6,7.6,11.8,17.7,11.8,28.5s-4.2,20.9-11.8,28.5
	c-7.6,7.6-17.7,11.8-28.5,11.8s-20.9-4.2-28.5-11.8c-7.6-7.6-11.8-17.7-11.8-28.5s4.2-20.9,11.8-28.5
	C235.1,219.9,245.2,215.7,256,215.7 M256,206c-27.6,0-50,22.4-50,50c0,27.6,22.4,50,50,50c27.6,0,50-22.4,50-50
	C306,228.4,283.6,206,256,206L256,206z M248.6,270.3c0,3.4-2.7,6.1-6.1,6.1c-3.4,0-6.1-2.7-6.1-6.1c0-3.4,2.7-6.1,6.1-6.1
	C245.8,264.2,248.6,266.9,248.6,270.3z M236.3,246.6v9.1c11.4,0.1,20.6,9.4,20.7,20.7h9.1C266,260,252.7,246.7,236.3,246.6z
	 M236.3,240.3c9.6,0,18.7,3.8,25.5,10.6c6.8,6.8,10.6,15.9,10.6,25.5h9.1c-0.1-24.9-20.2-45.1-45.2-45.2L236.3,240.3L236.3,240.3z"
	/>
</svg>
