<?xml version="1.0" encoding="utf-8"?>
<!-- Generator: Adobe Illustrator 19.1.0, SVG Export Plug-In . SVG Version: 6.00 Build 0)  -->
<svg version="1.1" id="Layer_1" xmlns="http://www.w3.org/2000/svg" xmlns:xlink="http://www.w3.org/1999/xlink" x="0px" y="0px"
	 viewBox="-429 231 100 100" style="enable-background:new -429 231 100 100;" xml:space="preserve">
<path id="facebook-circle-outline-icon" d="M-379,240.7c10.8,0,20.9,4.2,28.5,11.8s11.8,17.7,11.8,28.5s-4.2,20.9-11.8,28.5
	c-7.6,7.6-17.7,11.8-28.5,11.8s-20.9-4.2-28.5-11.8c-7.6-7.6-11.8-17.7-11.8-28.5s4.2-20.9,11.8-28.5S-389.7,240.7-379,240.7
	 M-379,231c-27.6,0-50,22.4-50,50s22.4,50,50,50s50-22.4,50-50S-351.4,231-379,231L-379,231z M-377.5,258.7v11.4h11.4v8.8h-11.4
	v12.6c0,2.9,0,4.5,0.3,5.3c0.3,0.8,1.1,1.6,1.9,2.1c1.1,0.7,2.3,1,3.7,1c2.5,0,5-0.8,7.4-2.4v7.8c-2.1,1-4,1.7-5.7,2.1
	c-1.7,0.4-3.5,0.6-5.5,0.6c-2.3,0-3.6-0.3-5.3-0.9c-1.7-0.6-3.2-1.4-4.4-2.4c-1.2-1.1-2.1-2.2-2.5-3.4c-0.5-1.2-0.7-2.9-0.7-5.2
	v-17.3h-6.7v-7c1.9-0.6,4.2-1.5,5.5-2.7c1.4-1.2,2.5-2.6,3.3-4.2c0.8-1.6,1.4-3.7,1.7-6.3L-377.5,258.7L-377.5,258.7z"/>
</svg>
